<?xml version="1.0" standalone="no"?>
<!DOCTYPE svg PUBLIC "-//W3C//DTD SVG 20010904//EN"
 "http://www.w3.org/TR/2001/REC-SVG-20010904/DTD/svg10.dtd">
<svg version="1.0" xmlns="http://www.w3.org/2000/svg"
 width="143.000000pt" height="143.000000pt" viewBox="0 0 143.000000 143.000000"
 preserveAspectRatio="xMidYMid meet">
<metadata>
Created by potrace 1.11, written by Peter Selinger 2001-2013
</metadata>
<g transform="translate(0.000000,143.000000) scale(0.100000,-0.100000)"
fill="#000000" stroke="none">
<path d="M575 1413 c-122 -44 -207 -118 -263 -232 -34 -68 -37 -82 -40 -175
-5 -146 29 -238 76 -207 11 7 10 20 -6 72 -26 82 -23 181 8 264 32 83 131 183
215 215 81 31 207 32 283 2 102 -40 184 -122 224 -224 28 -71 30 -192 4 -267
-15 -44 -16 -55 -5 -62 26 -17 42 -4 61 51 28 77 27 206 -1 280 -49 130 -131
219 -251 270 -75 32 -231 39 -305 13z"/>
<path d="M667 1203 c-12 -21 -79 -353 -74 -367 5 -13 13 -12 56 7 28 11 52 19
54 16 3 -2 7 -42 11 -89 6 -77 17 -112 31 -99 7 7 85 347 85 371 0 23 -14 23
-69 -2 -24 -11 -44 -20 -46 -20 -1 0 -6 33 -9 73 -4 39 -10 82 -13 95 -5 22
-18 29 -26 15z"/>
<path d="M377 732 c-15 -16 -14 -21 13 -61 45 -67 72 -148 78 -234 5 -77 5
-78 31 -75 25 3 26 5 25 71 l-2 67 188 0 188 0 -2 -67 c-1 -66 0 -68 25 -71
26 -3 26 -2 32 75 6 86 31 164 77 236 26 42 28 48 14 62 -9 8 -19 15 -23 15
-18 0 -101 -143 -101 -175 0 -19 19 -17 -212 -19 l-197 -1 -21 49 c-23 57 -78
146 -89 146 -5 0 -15 -8 -24 -18z"/>
<path d="M472 313 c-13 -26 -8 -193 6 -202 6 -3 59 -6 117 -6 58 0 105 -2 105
-6 0 -3 -34 -16 -76 -28 -67 -19 -75 -24 -72 -44 3 -21 7 -22 161 -25 l157 -3
0 26 c0 26 -13 31 -67 26 -42 -3 -24 8 46 29 83 26 104 39 95 63 -5 15 -27 17
-215 17 -179 0 -209 2 -209 15 0 13 29 15 205 15 l205 0 0 28 0 27 -205 0
c-178 0 -205 2 -203 15 3 13 33 15 198 16 107 1 198 2 203 3 4 1 7 12 7 26 l0
25 -225 0 c-204 0 -225 -2 -233 -17z"/>
</g>
</svg>
