<svg id="图层_1" data-name="图层 1" xmlns="http://www.w3.org/2000/svg" viewBox="0 0 471.81 563.72"><defs><style>.cls-1,.cls-4{fill:none;stroke-width:0.45px;}.cls-1{stroke:#73a1bf;}.cls-2{fill:#f7f7f7;opacity:0.6;}.cls-3,.cls-5,.cls-6{isolation:isolate;fill:#548dd4;font-family:ArialMT, Arial;}.cls-3{font-size:7.22px;}.cls-4{stroke:gray;}.cls-5{font-size:6.31px;}.cls-6{font-size:5.41px;}</style></defs><title>fh</title><g id="kity_g_8" data-name="kity g 8"><g id="minder1"><g id="minder_connect_group1" data-name="minder connect group1"><path id="kity_path_48" data-name="kity path 48" class="cls-1" d="M84.75,359.23c0-60.27,40.18-109.13,89.75-109.13"/><path id="kity_path_74" data-name="kity path 74" class="cls-1" d="M84.75,359.23c0,60.27,40.18,109.14,89.75,109.14"/><path id="kity_path_1161" data-name="kity path 1161" class="cls-1" d="M239.44,468.37c9,0,9-46.91,18-46.91"/><path id="kity_path_1169" data-name="kity path 1169" class="cls-1" d="M239.44,468.37c9,0,9-23.46,18-23.46"/><path id="kity_path_1209" data-name="kity path 1209" class="cls-1" d="M239.44,468.37c9,0,9,11.72,18,11.72"/><path id="kity_path_1257" data-name="kity path 1257" class="cls-1" d="M239.44,468.37c9,0,9,46.9,18,46.9"/><path id="kity_path_1545" data-name="kity path 1545" class="cls-1" d="M295.81,480.09c9,0,9-11.72,18-11.72"/><path id="kity_path_1553" data-name="kity path 1553" class="cls-1" d="M295.81,480.09c9,0,9,11.73,18,11.73"/><path id="kity_path_1593" data-name="kity path 1593" class="cls-1" d="M287.69,515.27h18"/><path id="kity_path_1600" data-name="kity path 1600" class="cls-1" d="M328.73,53.92c9,0,9-11.72,18-11.72"/><path id="kity_path_1601" data-name="kity path 1601" class="cls-1" d="M328.73,53.92c9,0,9,11.73,18,11.73"/><path id="kity_path_1602" data-name="kity path 1602" class="cls-1" d="M283.63,106.69c9,0,9-52.77,18-52.77"/><path id="kity_path_1603" data-name="kity path 1603" class="cls-1" d="M335.94,100.82c9,0,9-11.72,18-11.72"/><path id="kity_path_1604" data-name="kity path 1604" class="cls-1" d="M335.94,100.82c9,0,9,11.73,18,11.73"/><path id="kity_path_1605" data-name="kity path 1605" class="cls-1" d="M283.63,106.69c9,0,9-5.87,18-5.87"/><path id="kity_path_1606" data-name="kity path 1606" class="cls-1" d="M283.63,106.69c9,0,9,29.31,18,29.31"/><path id="kity_path_1607" data-name="kity path 1607" class="cls-1" d="M283.63,106.69c9,0,9,52.76,18,52.76"/><path id="kity_path_1608" data-name="kity path 1608" class="cls-1" d="M238.08,250.1c9,0,9-143.41,18-143.41"/><path id="kity_path_1609" data-name="kity path 1609" class="cls-1" d="M293.55,194.63c9,0,9-11.73,18-11.73"/><path id="kity_path_1610" data-name="kity path 1610" class="cls-1" d="M293.55,194.63c9,0,9,11.72,18,11.72"/><path id="kity_path_1611" data-name="kity path 1611" class="cls-1" d="M238.08,250.1c9,0,9-55.47,18-55.47"/><path id="kity_path_1612" data-name="kity path 1612" class="cls-1" d="M295.36,276.7c9,0,9-46.9,18-46.9"/><path id="kity_path_1613" data-name="kity path 1613" class="cls-1" d="M295.36,276.7c9,0,9-23.45,18-23.45"/><path id="kity_path_1614" data-name="kity path 1614" class="cls-1" d="M295.36,276.7h18"/><path id="kity_path_1615" data-name="kity path 1615" class="cls-1" d="M295.36,276.7c9,0,9,23.45,18,23.45"/><path id="kity_path_1616" data-name="kity path 1616" class="cls-1" d="M295.36,276.7c9,0,9,46.9,18,46.9"/><path id="kity_path_1617" data-name="kity path 1617" class="cls-1" d="M238.08,250.1c9,0,9,26.6,18,26.6"/><path id="kity_path_1618" data-name="kity path 1618" class="cls-1" d="M238.08,250.1c9,0,9,97,18,97"/><path id="kity_path_1619" data-name="kity path 1619" class="cls-1" d="M238.08,250.1c9,0,9,120.4,18,120.4"/><path id="kity_path_1620" data-name="kity path 1620" class="cls-1" d="M238.08,250.1c9,0,9,143.86,18,143.86"/></g><g id="minder_node1" data-name="minder node1"><path id="node_outline1" data-name="node outline1" class="cls-2" d="M50.48,350.21H119a2.26,2.26,0,0,1,2.25,2.26V366a2.26,2.26,0,0,1-2.25,2.26H50.48A2.26,2.26,0,0,1,48.22,366V352.47A2.26,2.26,0,0,1,50.48,350.21Z"/><g id="node_text1" data-name="node text1"><text id="kity_text_22" data-name="kity text 22" class="cls-3" transform="translate(59.05 361.39)">Perch Features</text></g></g><g id="minder_node4" data-name="minder node4"><g id="node_expander3" data-name="node expander3"><path id="kity_path_57" data-name="kity path 57" class="cls-2" d="M175,250.1a2.71,2.71,0,1,1-2.71-2.71A2.71,2.71,0,0,1,175,250.1"/><path id="kity_path_58" data-name="kity path 58" class="cls-4" d="M170.21,250.1h4.06"/></g><path id="node_outline4" data-name="node outline4" class="cls-2" d="M176.75,244.23h60a1.35,1.35,0,0,1,1.35,1.36v9a1.35,1.35,0,0,1-1.35,1.35h-60a1.35,1.35,0,0,1-1.35-1.35v-9A1.35,1.35,0,0,1,176.75,244.23Z"/><g id="node_text4" data-name="node text4"><text id="kity_text_54" data-name="kity text 54" class="cls-5" transform="translate(184.42 251.99)">Applicant Side</text></g></g><g id="minder_node7" data-name="minder node7"><g id="node_expander6" data-name="node expander6"><path id="kity_path_89" data-name="kity path 89" class="cls-2" d="M175,468.37a2.71,2.71,0,1,1-2.71-2.71,2.71,2.71,0,0,1,2.71,2.71h0"/><path id="kity_path_90" data-name="kity path 90" class="cls-4" d="M170.21,468.37h4.06"/></g><path id="node_outline7" data-name="node outline7" class="cls-2" d="M176.75,462.5h61.33a1.36,1.36,0,0,1,1.36,1.36v9a1.36,1.36,0,0,1-1.36,1.35H176.75a1.35,1.35,0,0,1-1.35-1.35v-9A1.35,1.35,0,0,1,176.75,462.5Z"/><g id="node_text7" data-name="node text7"><text id="kity_text_86" data-name="kity text 86" class="cls-5" transform="translate(184.42 470.26)">Job Poster Side</text></g></g><g id="minder_node126" data-name="minder node126"><path id="node_outline126" data-name="node outline126" class="cls-2" d="M259.73,416.5h37a2.26,2.26,0,0,1,2.25,2.26v5.41a2.26,2.26,0,0,1-2.25,2.26h-37a2.26,2.26,0,0,1-2.26-2.26v-5.41A2.26,2.26,0,0,1,259.73,416.5Z"/><g id="node_text126" data-name="node text126"><text id="kity_text_1163" data-name="kity text 1163" class="cls-6" transform="translate(261.98 423.09)">Onboarding</text></g></g><g id="minder_node127" data-name="minder node127"><path id="node_outline127" data-name="node outline127" class="cls-2" d="M259.73,440h24.8a2.26,2.26,0,0,1,2.26,2.26v5.41a2.26,2.26,0,0,1-2.26,2.26h-24.8a2.26,2.26,0,0,1-2.26-2.26v-5.41A2.26,2.26,0,0,1,259.73,440Z"/><g id="node_text127" data-name="node text127"><text id="kity_text_1173" data-name="kity text 1173" class="cls-6" transform="translate(261.98 446.54)">Post job</text></g></g><g id="minder_node132" data-name="minder node132"><g id="node_expander131" data-name="node expander131"><path id="kity_path_1224" data-name="kity path 1224" class="cls-2" d="M257.47,480.09a2.71,2.71,0,1,1-2.7-2.71,2.71,2.71,0,0,1,2.7,2.71h0"/><path id="kity_path_1225" data-name="kity path 1225" class="cls-4" d="M252.74,480.09h4.06"/></g><path id="node_outline132" data-name="node outline132" class="cls-2" d="M259.73,475.13h33.82a2.26,2.26,0,0,1,2.26,2.25v5.42a2.26,2.26,0,0,1-2.26,2.25H259.73a2.26,2.26,0,0,1-2.26-2.25v-5.42A2.26,2.26,0,0,1,259.73,475.13Z"/><g id="node_text132" data-name="node text132"><text id="kity_text_1221" data-name="kity text 1221" class="cls-6" transform="translate(261.98 481.71)">User center</text></g></g><g id="minder_node138" data-name="minder node138"><g id="node_expander137" data-name="node expander137"><path id="kity_path_1284" data-name="kity path 1284" class="cls-2" d="M257.47,515.27a2.71,2.71,0,1,1-2.7-2.71,2.7,2.7,0,0,1,2.7,2.71"/><path id="kity_path_1285" data-name="kity path 1285" class="cls-4" d="M252.74,515.27h4.06"/></g><path id="node_outline138" data-name="node outline138" class="cls-2" d="M259.73,510.31h25.7a2.26,2.26,0,0,1,2.26,2.25V518a2.26,2.26,0,0,1-2.26,2.26h-25.7a2.26,2.26,0,0,1-2.26-2.26v-5.41A2.26,2.26,0,0,1,259.73,510.31Z"/><g id="node_text138" data-name="node text138"><text id="kity_text_1281" data-name="kity text 1281" class="cls-6" transform="translate(261.98 516.89)">My Labs</text></g></g><g id="minder_node174" data-name="minder node174"><path id="node_outline174" data-name="node outline174" class="cls-2" d="M316.1,463.4h40.59a2.26,2.26,0,0,1,2.25,2.26v5.41a2.26,2.26,0,0,1-2.25,2.26H316.1a2.25,2.25,0,0,1-2.25-2.26v-5.41A2.25,2.25,0,0,1,316.1,463.4Z"/><g id="node_text174" data-name="node text174"><text id="kity_text_1547" data-name="kity text 1547" class="cls-6" transform="translate(318.36 469.99)">Manage Jobs</text></g></g><g id="minder_node175" data-name="minder node175"><path id="node_outline175" data-name="node outline175" class="cls-2" d="M316.1,486.86H377a2.25,2.25,0,0,1,2.26,2.25v5.41a2.26,2.26,0,0,1-2.26,2.26H316.1a2.25,2.25,0,0,1-2.25-2.26v-5.41A2.24,2.24,0,0,1,316.1,486.86Z"/><g id="node_text175" data-name="node text175"><text id="kity_text_1557" data-name="kity text 1557" class="cls-6" transform="translate(318.36 493.44)">Manage applications</text></g></g><g id="minder_node180" data-name="minder node180"><path id="node_outline180" data-name="node outline180" class="cls-2" d="M308,510.31h39.24a2.25,2.25,0,0,1,2.25,2.25V518a2.26,2.26,0,0,1-2.25,2.26H308a2.26,2.26,0,0,1-2.25-2.26v-5.41A2.25,2.25,0,0,1,308,510.31Z"/><g id="node_text180" data-name="node text180"><text id="kity_text_1595" data-name="kity text 1595" class="cls-6" transform="translate(310.24 516.89)">Manage labs</text></g></g><g id="minder_node98" data-name="minder node98"><path id="node_outline98" data-name="node outline98" class="cls-2" d="M349,37.24h43.29a2.26,2.26,0,0,1,2.26,2.25V44.9a2.26,2.26,0,0,1-2.26,2.26H349a2.26,2.26,0,0,1-2.25-2.26V39.49A2.25,2.25,0,0,1,349,37.24Z"/><g id="node_text98" data-name="node text98"><text id="kity_text_934" data-name="kity text 934" class="cls-6" transform="translate(351.28 43.82)">job description</text></g></g><g id="minder_node100" data-name="minder node100"><path id="node_outline100" data-name="node outline100" class="cls-2" d="M349,60.69H407.2a2.25,2.25,0,0,1,2.25,2.25v5.41a2.26,2.26,0,0,1-2.25,2.26H349a2.26,2.26,0,0,1-2.25-2.26V62.94A2.25,2.25,0,0,1,349,60.69Z"/><g id="node_text100" data-name="node text100"><text id="kity_text_952" data-name="kity text 952" class="cls-6" transform="translate(351.28 67.27)">Recommended jobs</text></g></g><g id="minder_node6" data-name="minder node6"><g id="node_expander4" data-name="node expander4"><path id="kity_path_66" data-name="kity path 66" class="cls-2" d="M301.67,53.92a2.71,2.71,0,1,1-2.71-2.7,2.71,2.71,0,0,1,2.71,2.7"/><path id="kity_path_67" data-name="kity path 67" class="cls-4" d="M296.93,53.92H301"/></g><path id="node_outline5" data-name="node outline5" class="cls-2" d="M303.92,49h22.55a2.26,2.26,0,0,1,2.26,2.26v5.41a2.26,2.26,0,0,1-2.26,2.25H303.92a2.25,2.25,0,0,1-2.25-2.25V51.22A2.26,2.26,0,0,1,303.92,49Z"/><g id="node_text5" data-name="node text5"><text id="kity_text_60" data-name="kity text 60" class="cls-6" transform="translate(306.18 55.55)">jobs list</text></g></g><g id="minder_node99" data-name="minder node99"><path id="node_outline99" data-name="node outline99" class="cls-2" d="M356.24,84.14H409.9a2.26,2.26,0,0,1,2.26,2.25V91.8a2.26,2.26,0,0,1-2.26,2.26H356.24A2.26,2.26,0,0,1,354,91.8V86.39A2.26,2.26,0,0,1,356.24,84.14Z"/><g id="node_text99" data-name="node text99"><text id="kity_text_942" data-name="kity text 942" class="cls-6" transform="translate(358.49 90.72)">faculty information</text></g></g><g id="minder_node102" data-name="minder node102"><path id="node_outline102" data-name="node outline102" class="cls-2" d="M356.24,107.59h65.84a2.25,2.25,0,0,1,2.25,2.25v5.42a2.25,2.25,0,0,1-2.25,2.25H356.24a2.26,2.26,0,0,1-2.26-2.25v-5.42A2.26,2.26,0,0,1,356.24,107.59Z"/><g id="node_text102" data-name="node text102"><text id="kity_text_968" data-name="kity text 968" class="cls-6" transform="translate(358.49 114.17)">Recommended faculty</text></g></g><g id="minder_node28" data-name="minder node28"><g id="node_expander27" data-name="node expander27"><path id="kity_path_304" data-name="kity path 304" class="cls-2" d="M301.67,100.82a2.71,2.71,0,1,1-2.71-2.7,2.71,2.71,0,0,1,2.71,2.7"/><path id="kity_path_305" data-name="kity path 305" class="cls-4" d="M296.93,100.82H301"/></g><path id="node_outline28" data-name="node outline28" class="cls-2" d="M303.92,95.86h29.77a2.26,2.26,0,0,1,2.25,2.26v5.41a2.25,2.25,0,0,1-2.25,2.25H303.92a2.25,2.25,0,0,1-2.25-2.25V98.12A2.26,2.26,0,0,1,303.92,95.86Z"/><g id="node_text28" data-name="node text28"><text id="kity_text_301" data-name="kity text 301" class="cls-6" transform="translate(306.18 102.45)">faculty list</text></g></g><g id="minder_node30" data-name="minder node30"><path id="node_outline30" data-name="node outline30" class="cls-2" d="M303.92,131h26.61a2.26,2.26,0,0,1,2.26,2.25v5.42a2.26,2.26,0,0,1-2.26,2.25H303.92a2.25,2.25,0,0,1-2.25-2.25v-5.42A2.25,2.25,0,0,1,303.92,131Z"/><g id="node_text30" data-name="node text30"><text id="kity_text_320" data-name="kity text 320" class="cls-6" transform="translate(306.18 137.62)">filter tool</text></g></g><g id="minder_node34" data-name="minder node34"><path id="node_outline34" data-name="node outline34" class="cls-2" d="M303.92,154.49H337.3a2.25,2.25,0,0,1,2.25,2.25v5.42a2.25,2.25,0,0,1-2.25,2.25H303.92a2.25,2.25,0,0,1-2.25-2.25v-5.42A2.25,2.25,0,0,1,303.92,154.49Z"/><g id="node_text34" data-name="node text34"><text id="kity_text_356" data-name="kity text 356" class="cls-6" transform="translate(306.18 161.07)">Search bar</text></g></g><g id="minder_node5" data-name="minder node5"><g id="node_expander5" data-name="node expander5"><path id="kity_path_69" data-name="kity path 69" class="cls-2" d="M256.12,106.69a2.71,2.71,0,1,1-2.7-2.71,2.7,2.7,0,0,1,2.7,2.71"/><path id="kity_path_70" data-name="kity path 70" class="cls-4" d="M251.39,106.69h4.05"/></g><path id="node_outline6" data-name="node outline6" class="cls-2" d="M258.38,101.73h23a2.25,2.25,0,0,1,2.25,2.25v5.41a2.26,2.26,0,0,1-2.25,2.26h-23a2.26,2.26,0,0,1-2.26-2.26V104A2.26,2.26,0,0,1,258.38,101.73Z"/><g id="node_text6" data-name="node text6"><text id="kity_text_62" data-name="kity text 62" class="cls-6" transform="translate(260.63 108.31)">Search</text></g></g><g id="minder_node26" data-name="minder node26"><path id="node_outline27" data-name="node outline27" class="cls-2" d="M313.85,177.94h31.56a2.26,2.26,0,0,1,2.26,2.25v5.42a2.26,2.26,0,0,1-2.26,2.25H313.85a2.26,2.26,0,0,1-2.26-2.25v-5.42A2.26,2.26,0,0,1,313.85,177.94Z"/><g id="node_text27" data-name="node text27"><text id="kity_text_277" data-name="kity text 277" class="cls-6" transform="translate(316.1 184.52)">Edit profile</text></g></g><g id="minder_node96" data-name="minder node96"><path id="node_outline96" data-name="node outline96" class="cls-2" d="M313.85,201.39h34.72a2.26,2.26,0,0,1,2.26,2.26v5.41a2.26,2.26,0,0,1-2.26,2.25H313.85a2.26,2.26,0,0,1-2.26-2.25v-5.41A2.26,2.26,0,0,1,313.85,201.39Z"/><g id="node_text96" data-name="node text96"><text id="kity_text_920" data-name="kity text 920" class="cls-6" transform="translate(316.1 207.97)">News feeds</text></g></g><g id="minder_node25" data-name="minder node25"><g id="node_expander24" data-name="node expander24"><path id="kity_path_272" data-name="kity path 272" class="cls-2" d="M256.12,194.63a2.71,2.71,0,1,1-2.7-2.71,2.7,2.7,0,0,1,2.7,2.71"/><path id="kity_path_273" data-name="kity path 273" class="cls-4" d="M251.39,194.63h4.05"/></g><path id="node_outline25" data-name="node outline25" class="cls-2" d="M258.38,189.67H291.3a2.25,2.25,0,0,1,2.25,2.25v5.41a2.26,2.26,0,0,1-2.25,2.26H258.38a2.26,2.26,0,0,1-2.26-2.26v-5.41A2.25,2.25,0,0,1,258.38,189.67Z"/><g id="node_text25" data-name="node text25"><text id="kity_text_269" data-name="kity text 269" class="cls-6" transform="translate(260.63 196.25)">User profile</text></g></g><g id="minder_node80" data-name="minder node80"><path id="node_outline80" data-name="node outline80" class="cls-2" d="M315.65,224.84h37a2.26,2.26,0,0,1,2.25,2.26v5.41a2.25,2.25,0,0,1-2.25,2.25h-37a2.26,2.26,0,0,1-2.26-2.25V227.1A2.26,2.26,0,0,1,315.65,224.84Z"/><g id="node_text80" data-name="node text80"><text id="kity_text_787" data-name="kity text 787" class="cls-6" transform="translate(317.91 231.42)">Applied jobs</text></g></g><g id="minder_node81" data-name="minder node81"><path id="node_outline81" data-name="node outline81" class="cls-2" d="M315.65,248.29h54.57a2.26,2.26,0,0,1,2.25,2.26V256a2.25,2.25,0,0,1-2.25,2.25H315.65a2.26,2.26,0,0,1-2.26-2.25v-5.41A2.26,2.26,0,0,1,315.65,248.29Z"/><g id="node_text81" data-name="node text81"><text id="kity_text_797" data-name="kity text 797" class="cls-6" transform="translate(317.91 254.88)">Connected faculty</text></g></g><g id="minder_node83" data-name="minder node83"><path id="node_outline83" data-name="node outline83" class="cls-2" d="M315.65,271.74H368a2.26,2.26,0,0,1,2.26,2.26v5.41a2.26,2.26,0,0,1-2.26,2.25H315.65a2.26,2.26,0,0,1-2.26-2.25V274A2.26,2.26,0,0,1,315.65,271.74Z"/><g id="node_text83" data-name="node text83"><text id="kity_text_816" data-name="kity text 816" class="cls-6" transform="translate(317.91 278.33)">Recommendation</text></g></g><g id="minder_node87" data-name="minder node87"><path id="node_outline87" data-name="node outline87" class="cls-2" d="M315.65,295.19h32.92a2.26,2.26,0,0,1,2.26,2.26v5.41a2.26,2.26,0,0,1-2.26,2.25H315.65a2.26,2.26,0,0,1-2.26-2.25v-5.41A2.26,2.26,0,0,1,315.65,295.19Z"/><g id="node_text87" data-name="node text87"><text id="kity_text_852" data-name="kity text 852" class="cls-6" transform="translate(317.91 301.78)">Saved jobs</text></g></g><g id="minder_node91" data-name="minder node91"><path id="node_outline91" data-name="node outline91" class="cls-2" d="M315.65,318.64h40.59a2.26,2.26,0,0,1,2.25,2.26v5.41a2.25,2.25,0,0,1-2.25,2.25H315.65a2.26,2.26,0,0,1-2.26-2.25V320.9A2.26,2.26,0,0,1,315.65,318.64Z"/><g id="node_text91" data-name="node text91"><text id="kity_text_886" data-name="kity text 886" class="cls-6" transform="translate(317.91 325.23)">Saved faculty</text></g></g><g id="minder_node38" data-name="minder node38"><g id="node_expander37" data-name="node expander37"><path id="kity_path_413" data-name="kity path 413" class="cls-2" d="M256.12,276.7a2.71,2.71,0,1,1-2.7-2.7,2.7,2.7,0,0,1,2.7,2.7"/><path id="kity_path_414" data-name="kity path 414" class="cls-4" d="M251.39,276.7h4.05"/></g><path id="node_outline38" data-name="node outline38" class="cls-2" d="M258.38,271.74H293.1a2.26,2.26,0,0,1,2.26,2.26v5.41a2.26,2.26,0,0,1-2.26,2.25H258.38a2.26,2.26,0,0,1-2.26-2.25V274A2.26,2.26,0,0,1,258.38,271.74Z"/><g id="node_text38" data-name="node text38"><text id="kity_text_410" data-name="kity text 410" class="cls-6" transform="translate(260.63 278.33)">User Center</text></g></g><g id="minder_node47" data-name="minder node47"><path id="node_outline47" data-name="node outline47" class="cls-2" d="M258.38,342.09h24.35a2.26,2.26,0,0,1,2.25,2.26v5.41a2.25,2.25,0,0,1-2.25,2.25H258.38a2.25,2.25,0,0,1-2.26-2.25v-5.41A2.26,2.26,0,0,1,258.38,342.09Z"/><g id="node_text47" data-name="node text47"><text id="kity_text_492" data-name="kity text 492" class="cls-6" transform="translate(260.63 348.68)">Settings</text></g></g><g id="minder_node57" data-name="minder node57"><path id="node_outline57" data-name="node outline57" class="cls-2" d="M258.38,365.54h25.7a2.26,2.26,0,0,1,2.26,2.26v5.41a2.26,2.26,0,0,1-2.26,2.26h-25.7a2.26,2.26,0,0,1-2.26-2.26V367.8A2.26,2.26,0,0,1,258.38,365.54Z"/><g id="node_text57" data-name="node text57"><text id="kity_text_583" data-name="kity text 583" class="cls-6" transform="translate(260.63 372.13)">My Labs</text></g></g><g id="minder_node104" data-name="minder node104"><path id="node_outline104" data-name="node outline104" class="cls-2" d="M258.38,389h37a2.26,2.26,0,0,1,2.25,2.26v5.41a2.26,2.26,0,0,1-2.25,2.26h-37a2.26,2.26,0,0,1-2.26-2.26v-5.41A2.26,2.26,0,0,1,258.38,389Z"/><g id="node_text104" data-name="node text104"><text id="kity_text_1029" data-name="kity text 1029" class="cls-6" transform="translate(260.63 395.58)">Onboarding</text></g></g></g></g></svg>