<svg id="图层_1" data-name="图层 1" xmlns="http://www.w3.org/2000/svg" viewBox="0 0 21.13 34.2"><defs><style>.cls-1,.cls-2{fill:none;stroke:#fff;stroke-width:1.23px;}.cls-1{stroke-miterlimit:10;}.cls-2{stroke-linejoin:round;}.cls-3{fill:#fff;}</style></defs><title>chenlogo</title><line class="cls-1" x1="5.29" y1="21.59" x2="15.64" y2="21.59"/><polyline class="cls-2" points="15.78 26.94 5.35 26.94 5.35 31 5.57 31"/><line class="cls-2" x1="5.35" y1="29.02" x2="15.78" y2="29.02"/><polyline class="cls-2" points="5.57 31 15.55 31 7.32 33.59 14.24 33.59"/><path class="cls-1" d="M19.44,15.05a10,10,0,1,0-17.76,0"/><path class="cls-1" d="M18.46,16.6a11.65,11.65,0,0,0-2.82,7.62c0,.42,0,.83.06,1.24"/><path class="cls-1" d="M2.65,16.61a11.66,11.66,0,0,1,2.83,7.62,11.76,11.76,0,0,1-.06,1.2"/><path class="cls-3" d="M9.69,5.13l0,0a.29.29,0,0,0-.13.19L7.64,14a.29.29,0,0,0,.22.34.26.26,0,0,0,.17,0l2.52-1.06.35,4.53a.28.28,0,0,0,.3.27.27.27,0,0,0,.26-.22l2-8.73a.27.27,0,0,0-.21-.34.32.32,0,0,0-.17,0L10.57,9.86l-.48-4.49a.29.29,0,0,0-.31-.26Z"/></svg>